# xmcd CD database file
#
# Track frame offsets:
#	150
#	23972
#	51742
#	76172
#	103367
#	126297
#	146975
#	167897
#	191882
#	219500
#
# Disc length: 3251 seconds
#
# Revision: 3
# Processed by: cddbd v1.5.2PL0 Copyright (c) Steve Scherf et al.
# Submitted via: CDex 1.70beta3
#
DISCID=a00cb10a
DTITLE=中谷美紀 - ABSOLUTE VALUE
DYEAR=1998
DGENRE=Pop
TTITLE0=MIND CIRCUS
TTITLE1=STRANGE PARADAISE
TTITLE2=逢いびきの森で
TTITLE3=汚れた脚　The Silence of Innocence
TTITLE4=my best of love
TTITLE5=いばらの冠
TTITLE6=天国より野蛮 -WILDER THAN HEAVEN-
TTITLE7=砂の果実
TTITLE8=水族館の夜
TTITLE9=鳥籠の宇宙
EXTD=YEAR: 1998
EXTT0=
EXTT1=
EXTT2=
EXTT3=
EXTT4=
EXTT5=
EXTT6=
EXTT7=
EXTT8=
EXTT9=
PLAYORDER=
